<?xml version="1.0" standalone="no"?>
<!DOCTYPE svg PUBLIC "-//W3C//DTD SVG 20010904//EN"
 "http://www.w3.org/TR/2001/REC-SVG-20010904/DTD/svg10.dtd">
<svg version="1.0" xmlns="http://www.w3.org/2000/svg"
 width="1800.000000pt" height="1800.000000pt" viewBox="0 0 1800.000000 1800.000000"
 preserveAspectRatio="xMidYMid meet">
<metadata>
Created by potrace 1.13, written by Peter Selinger 2001-2015
</metadata>
<g transform="translate(0.000000,1800.000000) scale(0.100000,-0.100000)"
fill="#000000" stroke="none">
<path d="M0 17635 c0 -201 3 -365 8 -365 17 0 312 306 312 325 0 11 -21 40
-46 66 -41 42 -48 57 -74 150 -15 57 -33 123 -39 147 l-12 42 -74 0 -75 0 0
-365z m155 203 c37 -142 43 -156 82 -199 l42 -45 -134 -134 -135 -135 0 333 0
332 53 0 52 0 40 -152z"/>
<path d="M310 17983 c0 -10 34 -141 75 -292 l74 -275 133 -133 c121 -121 168
-155 168 -120 0 10 -56 221 -211 800 l-10 37 -114 0 c-103 0 -115 -2 -115 -17z
m267 -266 c40 -149 86 -321 102 -381 l30 -110 -110 110 -110 110 -70 260 c-38
142 -71 265 -74 272 -3 9 16 12 78 12 l82 0 72 -273z"/>
<path d="M690 17984 c0 -9 61 -246 137 -526 l136 -510 -481 -481 -482 -482 0
-483 c0 -316 3 -483 10 -480 5 2 334 327 730 723 l721 720 -191 715 c-106 393
-198 739 -206 768 l-15 52 -180 0 c-159 0 -179 -2 -179 -16z m527 -747 l201
-752 -704 -705 -704 -705 0 430 0 430 495 495 c272 272 495 501 495 509 0 11
-185 711 -260 984 l-19 67 147 0 147 0 202 -753z"/>
<path d="M1320 17993 c0 -5 117 -442 259 -973 l260 -965 -920 -920 -919 -920
0 -648 c0 -356 3 -647 8 -647 14 0 2492 2485 2492 2500 0 8 -25 40 -55 70
l-56 56 -328 1225 -328 1224 -206 3 c-114 1 -207 -1 -207 -5z m708 -1240 l331
-1237 48 -48 48 -48 -1223 -1223 -1222 -1222 0 595 0 595 930 930 c762 762
930 935 930 956 0 15 -115 455 -255 978 -140 523 -255 953 -255 956 0 3 76 5
168 5 l168 0 332 -1237z"/>
<path d="M2160 17988 c0 -7 182 -689 404 -1516 367 -1371 400 -1500 376 -1477
-14 14 -35 25 -46 25 -12 0 -531 -512 -1457 -1438 l-1437 -1437 0 -618 c0
-339 3 -617 7 -617 5 0 790 782 1745 1737 l1738 1738 48 -48 c49 -48 82 -61
82 -29 -1 9 -222 843 -493 1852 l-492 1835 -238 3 c-186 2 -237 0 -237 -10z
m453 -55 c9 -32 226 -841 482 -1798 256 -957 468 -1747 471 -1755 3 -8 -10 0
-28 18 -19 17 -40 32 -48 32 -8 0 -795 -780 -1747 -1732 l-1733 -1733 0 565 0
565 1443 1443 1442 1442 45 -45 c52 -53 86 -61 77 -17 -3 15 -188 708 -411
1540 -223 833 -406 1518 -406 1523 0 5 84 9 199 9 l198 0 16 -57z"/>
<path d="M3030 17997 c0 -2 223 -836 495 -1852 382 -1423 493 -1850 483 -1857
-7 -4 -64 -38 -125 -75 -83 -50 -113 -73 -113 -88 0 -11 36 -56 87 -107 l88
-88 -1890 -1890 -1890 -1890 -75 75 c-42 41 -79 75 -83 75 -4 0 -7 -92 -7
-205 0 -113 3 -205 7 -205 4 0 41 34 83 75 l75 75 205 -205 205 -205 -288
-288 -287 -287 0 -573 c0 -314 3 -572 8 -572 4 0 264 256 577 570 l570 570
212 -212 213 -213 -790 -790 -790 -790 0 -603 c0 -331 3 -602 7 -602 5 0 497
489 1095 1087 l1088 1088 310 -310 310 -310 -1405 -1405 -1405 -1405 0 -693
c0 -380 3 -692 7 -692 5 0 794 786 1755 1747 l1748 1748 362 -363 363 -362
-2118 -2118 -2117 -2117 0 -498 c0 -273 3 -497 7 -497 5 0 1071 1063 2370
2362 l2363 2363 227 -228 228 -227 -2493 -2493 c-1370 -1370 -2492 -2498
-2492 -2505 0 -9 171 -12 822 -12 l823 0 2087 2087 2088 2088 235 -235 235
-235 -1840 -1840 c-1012 -1012 -1840 -1846 -1840 -1853 0 -9 144 -12 687 -12
l688 0 1502 1502 1503 1503 257 -258 258 -257 -1233 -1233 c-677 -677 -1232
-1238 -1232 -1245 0 -9 118 -12 552 -12 l553 0 962 962 963 963 287 -288 288
-287 -663 -663 c-364 -364 -662 -668 -662 -675 0 -9 111 -12 517 -12 l518 0
410 410 410 410 215 -215 215 -215 -183 -183 c-100 -100 -182 -188 -182 -195
0 -9 92 -12 420 -12 328 0 420 3 420 12 0 7 -82 95 -182 195 l-183 183 1890
1890 1890 1890 265 -265 265 -265 -1808 -1808 c-994 -994 -1807 -1813 -1807
-1820 0 -9 144 -12 687 -12 l688 0 1470 1470 1470 1470 280 -280 280 -280
-1178 -1178 c-647 -647 -1177 -1183 -1177 -1190 0 -9 121 -12 568 -12 l567 0
908 908 c499 499 907 914 907 921 0 8 -42 58 -93 110 l-93 96 -393 1470 -393
1469 76 231 c87 266 120 377 175 604 75 301 147 707 172 966 7 66 15 123 18
127 4 4 384 -1404 846 -3130 l840 -3137 39 -43 40 -43 -262 -262 c-144 -144
-262 -268 -262 -275 0 -9 128 -12 600 -12 l600 0 0 1273 0 1274 -2060 7689
c-1133 4229 -2065 7706 -2071 7727 l-10 37 -631 0 -630 0 5 -27 c3 -16 355
-1330 781 -2922 427 -1592 774 -2896 773 -2897 -2 -2 -30 34 -62 79 -85 118
-277 357 -402 499 -146 168 -567 588 -741 737 -132 115 -143 127 -157 175 -23
80 -1165 4346 -1165 4351 0 3 -219 5 -486 5 -458 0 -485 -1 -480 -17 3 -10
213 -792 466 -1738 253 -946 469 -1750 480 -1787 l18 -68 -41 24 c-168 95
-429 220 -670 322 -73 31 -133 58 -135 59 -1 1 -195 722 -431 1601 l-428 1599
-342 3 c-254 2 -341 -1 -341 -9 0 -7 173 -658 384 -1448 212 -790 388 -1448
391 -1462 l6 -26 -183 47 c-101 26 -246 60 -323 75 -77 15 -144 34 -149 41 -6
7 -177 635 -380 1396 l-371 1383 -348 3 c-191 1 -347 1 -347 -1 0 -2 155 -582
344 -1288 189 -706 351 -1310 359 -1343 l16 -58 -67 6 c-37 3 -150 11 -251 16
-102 6 -187 12 -189 15 -3 3 -651 2410 -703 2613 l-11 42 -365 0 c-343 0 -365
-1 -361 -17 96 -350 708 -2643 708 -2650 0 -6 -47 -13 -112 -17 -62 -4 -183
-15 -268 -25 -85 -10 -156 -17 -158 -15 -2 1 -162 595 -356 1320 -195 726
-359 1338 -365 1362 l-12 42 -389 0 c-215 0 -390 -3 -390 -6 0 -4 171 -644
380 -1424 209 -780 380 -1422 380 -1427 0 -6 -64 -26 -142 -47 -79 -20 -201
-54 -273 -75 -71 -22 -131 -38 -132 -37 -1 1 -184 679 -406 1507 l-403 1504
-328 3 c-310 2 -328 1 -324 -15 385 -1430 858 -3207 856 -3214 -2 -6 -46 -28
-98 -51 -52 -22 -156 -69 -230 -104 -118 -55 -136 -61 -142 -46 -7 17 -918
3417 -918 3426 0 4 -121 6 -270 6 -148 0 -270 -2 -270 -3z m969 -1749 c400
-1496 468 -1738 483 -1738 10 0 89 33 176 73 86 41 199 91 250 113 73 31 92
43 92 59 0 11 -193 743 -430 1625 -236 883 -430 1606 -430 1608 0 1 130 2 289
2 l288 0 60 -222 c33 -123 217 -809 409 -1526 l349 -1303 25 4 c14 2 86 23
160 46 74 22 201 58 283 79 128 32 147 40 147 57 0 11 -169 650 -375 1420
-207 770 -378 1410 -381 1423 l-6 22 353 0 354 0 365 -1366 c201 -751 368
-1370 371 -1376 5 -7 68 -4 205 11 110 12 244 25 299 29 90 6 100 9 103 27 2
14 -650 2476 -704 2658 -5 16 13 17 322 15 l327 -3 358 -1335 c197 -734 359
-1336 359 -1337 0 0 42 -4 93 -7 298 -18 426 -27 455 -33 25 -4 32 -2 32 10 0
12 -686 2586 -716 2690 -5 16 14 17 305 17 171 0 311 -2 311 -3 0 -2 169 -633
375 -1402 206 -770 373 -1400 371 -1402 -2 -2 -86 10 -187 27 -216 35 -439 63
-446 56 -3 -3 173 -671 391 -1484 218 -813 396 -1482 396 -1485 0 -4 33 -24
73 -44 l74 -38 -529 -915 c-290 -503 -528 -922 -528 -931 0 -15 19 -18 148
-24 298 -13 484 -24 488 -28 2 -2 -428 -752 -956 -1667 -528 -915 -960 -1671
-960 -1680 0 -23 94 -30 438 -30 149 0 272 -3 272 -6 0 -3 -256 -451 -570
-994 -345 -598 -570 -997 -570 -1012 0 -24 8 -29 113 -62 140 -45 301 -86 337
-86 25 0 63 63 640 1062 338 584 616 1073 618 1086 l4 23 -277 -7 c-240 -6
-278 -5 -273 7 3 8 431 752 952 1653 520 902 946 1645 946 1651 0 15 -29 18
-395 45 -154 11 -285 21 -291 23 -6 1 190 351 437 777 246 426 450 780 452
785 2 6 18 0 35 -12 34 -25 62 -30 62 -12 0 7 -198 752 -441 1656 -242 905
-438 1647 -435 1650 9 9 213 -34 446 -94 285 -73 270 -71 270 -40 0 14 -176
681 -390 1481 -215 801 -390 1460 -390 1466 0 7 103 10 303 10 l303 0 431
-1607 c237 -885 429 -1609 428 -1611 -2 -2 -72 22 -157 53 -200 75 -446 155
-475 155 -17 0 -23 -6 -23 -21 0 -12 266 -1014 591 -2227 l591 -2205 -107
-184 c-58 -102 -105 -192 -103 -201 2 -12 38 -22 159 -43 86 -14 171 -29 191
-33 33 -6 36 -10 57 -79 l23 -73 -821 -1422 c-452 -782 -821 -1431 -821 -1442
0 -26 15 -26 290 4 118 13 216 22 218 21 2 -1 -275 -484 -614 -1071 -340 -588
-620 -1081 -622 -1097 -3 -18 0 -27 9 -27 7 0 65 19 129 42 158 59 510 237
655 332 l120 79 518 897 c284 493 517 906 517 918 0 28 2 28 -200 -3 -206 -30
-492 -67 -495 -63 -2 3 1259 2188 1261 2185 1 -1 7 -45 13 -97 8 -67 166 -670
537 -2055 l525 -1959 -1896 -1896 c-1042 -1042 -1895 -1902 -1895 -1910 0 -23
442 -460 465 -460 13 0 664 644 1915 1895 l1895 1895 150 -150 c133 -133 185
-173 185 -140 0 5 -621 2327 -1380 5160 -759 2833 -1380 5152 -1380 5155 0 3
7 5 15 5 8 0 15 7 15 15 0 8 2 15 5 15 27 0 484 -213 677 -316 86 -46 164 -84
173 -84 8 0 15 7 15 16 0 15 -955 3588 -967 3622 -4 10 86 12 443 10 l447 -3
583 -2175 c321 -1196 588 -2191 593 -2211 9 -29 40 -62 154 -160 173 -149 594
-569 740 -737 139 -159 322 -388 432 -541 62 -85 93 -121 108 -121 17 0 19 5
14 33 -3 17 -359 1352 -791 2964 -432 1613 -786 2937 -786 2943 0 7 197 10
593 10 l592 0 2078 -7758 2078 -7757 -1 -1227 0 -1228 -562 0 -563 0 258 258
c141 141 257 264 257 272 0 8 -20 35 -45 61 l-46 46 -854 3189 c-470 1754
-855 3190 -855 3192 0 1 -8 2 -18 2 -15 0 -19 -21 -35 -177 -53 -541 -185
-1142 -368 -1673 -34 -96 -63 -184 -65 -195 -3 -11 175 -690 394 -1508 l399
-1489 84 -84 84 -84 -905 -905 -905 -905 -520 0 -520 0 1173 1173 c644 644
1172 1179 1172 1187 0 23 -581 600 -605 600 -13 0 -516 -496 -1500 -1480
l-1480 -1480 -640 0 -640 0 1803 1803 c991 991 1802 1809 1802 1817 0 23 -551
570 -575 570 -24 0 -3825 -3796 -3825 -3820 0 -8 80 -95 177 -192 l178 -178
-365 0 -365 0 178 178 c97 97 177 184 177 192 0 23 -451 470 -475 470 -13 0
-165 -145 -440 -420 l-420 -420 -470 0 -470 0 658 658 c361 361 657 664 657
672 0 20 -600 620 -620 620 -8 0 -454 -439 -990 -975 l-975 -975 -505 0 -505
0 1228 1228 c675 675 1227 1234 1227 1242 0 20 -540 560 -560 560 -8 0 -697
-682 -1530 -1515 l-1515 -1515 -640 0 -640 0 1833 1833 c1209 1209 1832 1839
1832 1852 0 24 -487 515 -510 515 -8 0 -960 -945 -2115 -2100 l-2100 -2100
-775 0 -775 0 2488 2488 c1368 1368 2487 2494 2487 2502 0 20 -480 500 -500
500 -8 0 -1076 -1061 -2372 -2357 l-2358 -2358 0 445 0 445 2135 2135 c1174
1174 2135 2142 2135 2150 0 20 -750 770 -770 770 -8 0 -799 -784 -1757 -1742
l-1743 -1743 0 640 0 640 1420 1420 c938 938 1420 1427 1420 1440 0 24 -637
665 -660 665 -8 0 -502 -487 -1097 -1082 l-1083 -1083 0 550 0 550 805 805
c533 533 805 812 805 825 0 27 -438 465 -465 465 -13 0 -216 -196 -582 -562
l-563 -563 0 520 0 520 305 305 c168 168 305 312 305 320 0 23 -431 450 -455
450 -11 0 -49 -30 -87 -67 l-68 -67 0 149 0 149 68 -67 c37 -37 76 -67 87 -67
24 0 3825 3797 3825 3820 0 8 -39 54 -87 103 -72 71 -85 89 -73 98 8 5 63 39
123 75 59 36 107 70 107 75 0 8 -965 3619 -986 3692 -5 16 9 17 227 15 l232
-3 466 -1737z m4941 -1042 c91 -14 210 -32 265 -41 l100 -17 429 -1602 c236
-880 431 -1607 434 -1614 3 -11 1 -11 -17 0 -15 9 -26 10 -36 3 -9 -6 -220
-363 -469 -795 l-452 -784 -50 2 c-296 12 -519 24 -522 27 -2 1 233 413 522
913 289 501 526 918 526 926 0 10 -31 32 -80 56 -44 22 -80 43 -80 47 0 3
-173 653 -385 1443 -212 790 -385 1442 -385 1448 0 16 11 15 200 -12z m1378
-326 c97 -33 228 -79 291 -103 l114 -44 1373 -5124 c756 -2818 1374 -5128
1374 -5134 0 -5 -57 48 -128 118 -77 77 -135 127 -147 127 -13 0 -668 -648
-1915 -1895 l-1895 -1895 -210 210 -210 210 1898 1898 c1043 1043 1897 1903
1897 1910 0 7 -6 23 -14 35 -8 12 -248 897 -535 1967 -375 1403 -523 1971
-531 2040 -14 119 -17 130 -39 130 -14 0 -181 -282 -651 -1097 -348 -604 -639
-1104 -645 -1111 -8 -9 -88 -22 -231 -37 -121 -13 -219 -23 -220 -22 0 1 361
628 803 1392 442 765 811 1404 820 1421 15 30 14 37 -12 122 -18 60 -33 92
-44 95 -9 2 -93 17 -187 33 l-171 28 85 146 c93 160 93 160 99 143 6 -16 43
-17 43 -2 0 5 -270 1018 -600 2249 -330 1232 -600 2242 -600 2245 0 8 4 7 188
-55z m-748 -4616 c124 -9 241 -19 262 -23 l36 -6 -941 -1633 -942 -1633 -317
3 c-174 2 -319 6 -323 10 -4 3 422 749 947 1658 l953 1651 50 -6 c27 -2 151
-12 275 -21z m1448 -3143 c-1 -5 -230 -402 -508 -883 l-505 -875 -120 -79
c-175 -114 -454 -256 -652 -330 l-62 -23 100 172 c55 95 330 571 611 1059
l512 886 101 12 c55 7 186 25 290 40 216 31 238 33 233 21z m-2501 -213 c-3
-7 -276 -481 -606 -1053 -584 -1010 -602 -1040 -629 -1037 -35 5 -322 88 -356
103 -15 7 -25 16 -24 20 2 5 257 449 568 988 l565 980 180 3 c99 2 209 4 244
6 47 1 62 -1 58 -10z"/>
<path d="M7548 15303 c-83 -4 -88 -5 -88 -26 0 -19 698 -2646 706 -2656 2 -2
46 -6 98 -10 53 -4 99 -10 102 -14 3 -3 -280 -501 -630 -1107 -350 -606 -636
-1110 -636 -1121 0 -20 6 -20 385 -13 212 4 385 5 385 2 0 -3 -426 -742 -947
-1644 -520 -901 -948 -1651 -951 -1665 -4 -25 -1 -27 50 -33 113 -12 505 -37
547 -34 l44 3 963 1669 c530 918 964 1675 964 1683 0 9 -17 13 -57 14 -32 1
-180 4 -330 8 l-272 6 601 1040 c330 572 603 1049 605 1061 4 19 -6 24 -104
53 -59 17 -113 31 -120 31 -6 0 -15 6 -20 13 -4 6 -172 626 -373 1377 l-366
1365 -234 1 c-129 0 -274 -1 -322 -3z m893 -1396 c201 -752 369 -1370 373
-1374 3 -4 55 -21 114 -38 79 -23 106 -35 104 -45 -2 -8 -269 -474 -593 -1036
l-589 -1021 -347 -6 c-191 -4 -349 -5 -351 -2 -3 2 281 498 629 1101 349 604
635 1108 637 1121 2 13 0 23 -5 23 -56 3 -215 19 -217 21 -2 2 -160 591 -352
1309 l-350 1305 86 6 c47 3 177 5 290 5 l204 -1 367 -1368z m-45 -3586 l92 -6
-942 -1631 c-518 -897 -948 -1641 -957 -1654 l-15 -22 -249 17 c-138 9 -264
20 -281 24 l-31 6 945 1638 946 1637 200 -1 c111 -1 242 -4 292 -8z"/>
<path d="M6640 15204 c-134 -23 -419 -80 -452 -90 -12 -3 -18 -15 -18 -32 0
-15 159 -619 353 -1342 349 -1298 354 -1315 378 -1313 13 0 82 19 153 42 119
37 356 96 361 89 1 -2 -288 -502 -641 -1113 -353 -610 -643 -1119 -643 -1129
-1 -21 27 -21 407 5 90 6 165 9 167 7 2 -2 -405 -712 -905 -1578 -500 -866
-910 -1582 -910 -1591 0 -12 26 -19 128 -32 70 -10 143 -17 162 -17 l35 1 920
1595 c506 877 922 1605 923 1616 4 21 2 21 -168 15 l-171 -5 24 41 c563 970
1297 2251 1297 2263 0 16 -14 17 -148 11 -82 -4 -195 -12 -251 -18 -56 -7
-103 -10 -105 -8 -1 2 -159 590 -351 1307 l-349 1302 -30 -1 c-17 -1 -92 -12
-166 -25z m516 -1309 c191 -715 350 -1304 354 -1308 4 -4 63 -1 131 7 169 20
353 31 347 20 -3 -5 -296 -514 -652 -1130 l-647 -1122 -107 -6 c-59 -4 -171
-12 -250 -17 -79 -6 -145 -9 -147 -7 -2 2 285 503 637 1113 353 611 643 1120
646 1133 3 17 0 22 -18 22 -39 0 -292 -59 -421 -98 l-125 -38 -350 1305 c-231
861 -347 1308 -340 1312 17 10 583 120 592 115 1 -1 158 -586 350 -1301z
m-149 -3592 c-13 -24 -1821 -3159 -1823 -3162 -3 -4 -237 29 -242 33 -1 2 403
706 899 1564 l901 1561 51 4 c103 7 218 7 214 0z"/>
<path d="M5425 14897 c-33 -13 -138 -52 -232 -87 -166 -62 -173 -65 -173 -92
0 -20 324 -1244 640 -2418 9 -32 3 -28 -83 58 -51 51 -99 92 -107 92 -24 0
-3820 -3801 -3820 -3825 0 -24 517 -545 540 -545 8 0 623 608 1367 1352 l1352
1352 -98 -195 c-100 -198 -191 -413 -191 -449 0 -16 7 -20 35 -20 24 0 35 -5
35 -14 0 -8 7 -16 15 -18 10 -2 -19 -61 -107 -213 -67 -115 -127 -228 -134
-251 -32 -107 -94 -541 -94 -664 l0 -55 -745 -745 c-492 -492 -745 -752 -745
-765 0 -24 607 -635 630 -635 8 0 227 212 486 471 372 372 473 468 477 453 3
-11 11 -43 17 -71 9 -39 17 -53 29 -53 13 0 230 366 794 1345 428 740 777
1354 777 1365 0 11 -4 20 -8 20 -5 0 -124 -11 -266 -25 -303 -29 -296 -29
-296 -10 0 8 -7 15 -15 15 -8 0 -15 2 -15 5 0 2 266 464 590 1026 325 562 590
1030 590 1041 0 10 -7 18 -15 18 -8 0 -86 -36 -173 -79 -137 -69 -160 -84
-179 -118 -12 -21 -22 -31 -23 -22 0 13 -713 2687 -736 2762 -7 23 -45 21
-119 -6z m447 -1357 c196 -734 360 -1347 363 -1361 6 -24 -4 -33 -137 -122
-153 -102 -301 -217 -437 -340 l-85 -76 -426 -738 c-413 -715 -427 -738 -457
-741 l-32 -3 35 88 c54 136 186 402 264 533 73 124 82 150 53 150 -10 0 -627
-609 -1420 -1402 l-1403 -1403 -250 250 -250 250 1890 1890 1890 1890 108
-108 c101 -101 142 -127 142 -92 0 12 -645 2432 -665 2495 -4 13 33 30 167 80
95 35 193 72 218 81 25 10 51 17 59 16 11 -1 116 -381 373 -1337z m612 -1457
c-945 -1637 -1049 -1816 -1068 -1823 -12 -4 -56 -11 -98 -15 l-78 -7 95 164
c52 89 303 525 559 967 l464 805 124 62 c67 35 124 63 125 63 1 1 -54 -97
-123 -216z m-216 15 c-58 -90 -1072 -1858 -1076 -1875 -5 -28 -6 -28 146 -9
62 8 119 20 127 26 9 7 15 8 15 2 0 -5 -6 -12 -12 -15 -7 -2 -249 -414 -538
-914 l-525 -910 -7 46 c-3 25 -7 123 -7 217 l-1 171 380 659 c209 362 380 666
380 676 0 22 4 23 -216 -10 l-180 -27 130 225 c71 124 263 456 426 738 l297
514 94 84 c52 47 141 121 198 167 106 83 359 257 375 257 4 0 2 -10 -6 -22z
m-245 -1881 c-10 -19 -351 -611 -758 -1315 l-740 -1282 -14 65 c-12 55 -17 65
-35 65 -14 0 -171 -150 -493 -472 l-473 -473 -295 295 -295 295 720 720 720
720 0 -160 c0 -242 9 -355 29 -355 11 0 197 314 556 936 297 515 545 938 551
941 15 6 448 51 502 52 l42 1 -17 -33z m-935 -89 c-8 -13 -164 -283 -347 -601
-184 -318 -336 -576 -338 -573 -14 14 61 539 91 638 10 33 261 484 283 508 4
4 269 47 307 49 17 1 17 -1 4 -21z"/>
<path d="M4380 14448 c-30 -17 -112 -62 -182 -100 -87 -47 -128 -75 -128 -86
0 -10 36 -152 80 -317 l80 -300 103 -103 102 -102 -1898 -1898 c-1043 -1043
-1897 -1904 -1897 -1912 0 -23 492 -510 515 -510 23 0 3825 3796 3825 3819 0
8 -30 46 -68 85 l-67 71 -185 693 c-208 781 -180 714 -280 660z m74 -35 c3
-10 86 -319 185 -687 l179 -668 58 -59 59 -59 -1890 -1890 -1890 -1890 -235
235 -235 235 1898 1898 c1043 1043 1897 1904 1897 1912 0 8 -49 64 -110 125
l-109 110 -76 280 c-41 154 -75 285 -75 290 0 9 315 185 332 185 4 0 9 -8 12
-17z"/>
<path d="M11700 14273 c0 -10 628 -2366 1397 -5235 1162 -4338 1401 -5218
1415 -5218 54 0 559 1062 558 1173 0 18 -515 1951 -1144 4297 l-1143 4265 -64
54 c-113 94 -373 286 -541 398 -200 135 -443 283 -463 283 -8 0 -15 -8 -15
-17z m167 -115 c255 -155 633 -422 822 -579 l64 -54 1143 -4265 1143 -4265
-26 -70 c-104 -276 -388 -874 -483 -1014 -14 -21 -73 194 -918 3346 -496 1852
-1120 4179 -1385 5171 -266 991 -482 1802 -480 1802 2 0 56 -32 120 -72z"/>
<path d="M14290 11818 c0 -7 275 -1042 612 -2300 491 -1834 616 -2288 629
-2288 20 0 29 131 29 430 0 1244 -310 2488 -893 3585 -78 147 -248 439 -319
550 -22 34 -58 48 -58 23z m177 -298 c626 -1058 984 -2250 1053 -3500 11 -202
12 -592 2 -627 -5 -15 -203 710 -582 2123 -316 1180 -576 2153 -578 2162 -5
25 12 -1 105 -158z"/>
<path d="M10289 10893 c-183 -318 -335 -590 -337 -605 -4 -26 -2 -28 29 -28
48 0 470 -48 476 -53 2 -3 -414 -731 -926 -1617 -512 -887 -931 -1619 -931
-1627 0 -15 2 -15 440 7 95 5 175 8 177 6 2 -1 -288 -507 -644 -1124 l-648
-1122 -80 6 c-44 3 -116 10 -160 15 l-80 9 -517 -517 c-340 -340 -518 -525
-518 -538 0 -24 607 -635 630 -635 22 0 1770 1751 1770 1774 0 14 -5 17 -22
13 -179 -42 -333 -76 -372 -81 l-49 -8 25 44 c543 936 1258 2182 1258 2193 0
8 -4 15 -8 15 -5 0 -131 -9 -281 -20 -150 -12 -277 -20 -281 -18 -4 2 396 703
891 1558 494 855 898 1562 899 1571 0 21 -3 22 -270 59 -124 17 -239 33 -256
35 l-32 5 244 423 c134 232 244 431 244 441 0 40 -288 396 -319 396 -14 0
-106 -152 -352 -577z m509 342 c43 -55 89 -114 102 -132 l22 -31 -237 -411
c-234 -406 -237 -411 -268 -410 -18 0 -121 10 -229 22 l-197 22 225 390 c124
215 271 468 327 564 l100 174 39 -44 c21 -24 73 -89 116 -144z m-55 -1096
c122 -17 225 -34 230 -38 4 -4 -393 -700 -882 -1547 l-888 -1539 -64 -7 c-51
-6 -479 -27 -486 -24 -1 1 408 710 908 1576 501 866 915 1583 920 1593 12 22
1 22 262 -14z m-996 -3171 c-2 -7 -289 -505 -636 -1106 -347 -601 -631 -1102
-631 -1114 0 -19 4 -20 57 -13 31 4 119 20 196 36 78 16 142 27 143 26 2 -2
-375 -381 -836 -842 l-840 -840 -295 295 -295 295 508 508 508 508 162 -12
c89 -7 164 -10 166 -8 2 2 295 508 650 1123 355 616 647 1121 649 1122 3 4
374 31 441 33 43 1 57 -2 53 -11z"/>
<path d="M11378 7671 c-142 -246 -258 -455 -258 -464 0 -22 21 -22 155 3 60
10 110 18 111 17 0 -1 -167 -292 -372 -647 -205 -355 -374 -653 -374 -662 0
-11 7 -18 19 -18 40 0 314 360 462 608 l92 154 181 -181 181 -181 -1898 -1898
c-1043 -1043 -1897 -1904 -1897 -1912 0 -20 480 -500 500 -500 24 0 3820 3801
3820 3825 0 12 -67 87 -179 200 l-180 180 -139 519 -139 519 19 49 c22 58 23
75 4 80 -11 2 -4 20 25 70 45 77 91 245 134 488 30 175 31 200 8 200 -13 -1
-93 -131 -275 -449z m227 222 c-9 -48 -31 -150 -50 -225 -31 -126 -41 -149
-112 -272 l-78 -135 -93 -17 c-51 -9 -94 -15 -96 -13 -2 2 96 176 218 386 122
210 222 378 224 373 2 -5 -4 -49 -13 -97z m-32 -1211 l138 -517 174 -175 175
-175 -1890 -1890 -1890 -1890 -227 228 -228 227 1898 1898 c1043 1043 1897
1904 1897 1912 0 20 -391 410 -411 410 -10 0 -49 -56 -106 -152 -84 -142 -228
-354 -289 -423 l-26 -30 20 35 c55 97 586 1018 598 1038 8 12 18 22 22 22 4 0
69 -233 145 -518z"/>
<path d="M4643 7149 c3 -19 22 -74 42 -122 48 -114 61 -114 127 1 26 46 48 92
48 102 0 18 -24 25 -174 46 l-49 7 6 -34z"/>
<path d="M5119 6958 c-45 -79 -109 -190 -142 -248 -57 -100 -74 -119 -369
-415 -169 -171 -308 -317 -308 -325 0 -20 421 -440 440 -440 8 0 131 116 273
258 l258 257 22 -27 c46 -57 41 -64 350 472 159 275 287 508 285 517 -3 15
-19 19 -93 26 -50 4 -210 21 -357 37 -147 17 -269 30 -272 30 -2 0 -42 -64
-87 -142z m376 77 c127 -14 267 -28 311 -33 l82 -7 -276 -478 -275 -477 -27
25 c-14 14 -33 25 -40 25 -8 0 -131 -116 -272 -257 l-258 -258 -197 198 -198
197 301 302 301 303 139 242 c108 190 143 243 159 243 11 0 124 -11 250 -25z"/>
<path d="M6594 6959 c-6 -8 -192 -329 -414 -714 l-403 -700 -258 -260 c-143
-143 -259 -267 -259 -275 0 -20 751 -770 770 -770 21 0 730 711 730 733 0 9
-6 17 -13 17 -15 0 -421 201 -450 222 -17 13 16 73 464 848 266 459 484 847
487 861 l4 26 -159 6 c-488 20 -488 20 -499 6z m497 -38 l116 -6 -480 -830
c-322 -557 -481 -840 -481 -859 -1 -26 7 -34 64 -67 36 -21 138 -73 227 -116
89 -43 163 -80 163 -83 0 -3 -151 -156 -335 -340 l-335 -335 -362 363 -363
362 251 252 251 253 403 700 c222 385 407 706 413 713 11 14 106 12 468 -7z"/>
<path d="M14423 3647 c-35 -57 -63 -110 -63 -118 0 -20 242 -259 263 -259 9 0
17 3 17 8 0 4 -27 112 -61 240 -48 179 -66 232 -78 232 -10 0 -41 -42 -78
-103z m154 -280 c-1 -4 -41 32 -89 80 l-87 88 47 76 47 76 42 -156 c23 -86 41
-159 40 -164z"/>
<path d="M15000 17988 c0 -7 669 -2512 1487 -5565 993 -3706 1492 -5553 1500
-5553 11 0 13 456 13 2352 l0 2352 -851 3175 c-468 1747 -855 3193 -861 3214
l-11 37 -639 0 c-504 0 -638 -3 -638 -12z m2112 -3242 l868 -3240 -2 -2248 -3
-2248 -1324 4943 c-729 2718 -1391 5188 -1471 5490 l-147 547 606 -2 605 -3
868 -3239z"/>
<path d="M15852 697 c-369 -369 -672 -678 -672 -685 0 -9 122 -12 573 -12
l572 0 393 393 c255 255 392 399 392 412 0 27 -538 565 -565 565 -13 0 -252
-232 -693 -673z m826 -284 l-393 -393 -525 0 -525 0 655 655 655 655 262 -262
263 -263 -392 -392z"/>
</g>
</svg>
